<svg width="1088" height="132" viewBox="0 0 1088 132" fill="none" xmlns="http://www.w3.org/2000/svg">
<g opacity="0.8">
<path d="M117.292 3.38672C115.361 2.97603 111.804 2.668 109.263 2.77068C106.722 2.77068 103.368 3.28405 101.64 3.79742C99.9128 4.31079 96.8639 6.46695 94.7296 8.6231C92.5954 10.6766 89.953 14.2702 88.835 16.529C87.6155 19.0959 86.9041 22.7921 86.9041 26.2831C86.9041 30.5954 87.6155 33.1622 89.8513 37.0638C91.3758 39.836 94.5264 43.4296 96.6606 44.9697C98.8965 46.4072 102.657 48.2553 105.198 48.8714C108.45 49.6928 111.194 49.6928 114.852 48.974C117.597 48.358 121.357 46.8179 123.085 45.5858C124.914 44.251 127.251 42.0949 128.268 40.6574C129.386 39.22 131.113 36.5505 132.028 34.7023C132.943 32.9569 133.654 28.9526 133.654 26.0777C133.654 22.8948 132.943 18.9932 131.723 16.529C130.707 14.2702 127.861 10.5739 125.32 8.31508C122.881 6.05625 119.223 3.90009 117.292 3.38672Z" fill="url(#paint0_linear_279_13711)" fill-opacity="0.9"/>
<path d="M50.5664 11.3176C46.6982 9.57525 42.6263 8.65283 37.3329 8.34536C30.4108 8.03788 28.9856 8.34536 22.0635 11.3176C17.4826 13.3674 12.9018 16.3396 10.3569 18.9019C8.11737 21.2592 4.96168 25.8713 3.23115 29.151C0.584442 34.4805 0.279053 36.2229 0.279053 44.4221C0.279053 51.904 0.686238 54.5687 2.62037 58.7709C3.84192 61.5381 6.38683 65.7402 8.11737 67.8925C9.9497 70.1473 13.2072 73.1196 15.4467 74.657C17.6862 76.1943 23.3868 78.9616 28.0694 80.9089C32.8539 82.8562 38.5545 86.0334 40.794 88.0832C43.1353 90.0306 46.1892 93.7202 47.6143 96.2825C49.1413 98.7423 50.8718 102.637 51.5844 104.892C52.3988 107.147 54.1293 111.041 55.5545 113.603C56.9796 116.063 60.0335 119.958 62.273 122.315C64.5125 124.57 68.5844 127.542 71.4347 128.977C75.0994 130.719 78.764 131.539 84.6682 131.847C91.5904 132.257 93.8299 131.949 99.9377 129.695C105.027 127.747 108.285 125.697 111.237 122.623C113.477 120.163 116.53 116.166 117.956 113.603C119.381 111.041 121.111 106.429 121.824 103.354C122.536 100.075 122.842 95.3601 122.536 92.0804C122.129 89.0057 120.501 83.5737 118.77 79.9865C117.141 76.5018 113.986 71.8897 111.848 69.7374C109.71 67.4826 105.638 64.9203 102.279 63.5879C99.0215 62.358 93.6263 59.8983 90.267 58.2584C86.9077 56.6186 82.6323 53.6463 80.7999 51.8015C79.0694 49.9566 76.3209 46.472 74.8958 43.9097C73.4706 41.3474 71.4347 36.7353 70.4167 33.6606C69.3988 30.5859 67.3628 26.1788 65.8359 23.924C64.3089 21.6692 61.5604 18.492 59.6263 16.8521C57.6922 15.2122 53.6203 12.7525 50.5664 11.3176Z" fill="url(#paint1_linear_279_13711)" fill-opacity="0.9"/>
<path d="M994.146 124.544C992.781 124.544 991.679 124.124 990.84 123.284C990 122.444 989.527 121.447 989.423 120.293C989.318 119.033 989.685 117.878 990.525 116.829L1074.76 10.0774H994.146C992.781 10.0774 991.627 9.76248 990.682 9.13268C989.842 8.39792 989.423 7.29577 989.423 5.82623C989.423 4.67159 989.842 3.6744 990.682 2.83467C991.627 1.99494 992.781 1.57507 994.146 1.57507H1082.48C1083.95 1.57507 1085.05 2.04742 1085.78 2.99213C1086.62 3.83186 1087.09 4.82904 1087.2 5.98368C1087.3 7.13831 1087.04 8.1355 1086.41 8.97523L1001.55 116.041H1082.48C1083.74 116.041 1084.84 116.409 1085.78 117.144C1086.73 117.773 1087.2 118.823 1087.2 120.293C1087.2 121.342 1086.73 122.339 1085.78 123.284C1084.84 124.124 1083.74 124.544 1082.48 124.544H994.146Z" fill="white"/>
<path d="M943.008 124.544C941.644 124.544 940.489 124.124 939.544 123.284C938.705 122.339 938.285 121.185 938.285 119.82V6.29858C938.285 4.93401 938.705 3.83186 939.544 2.99213C940.489 2.04742 941.644 1.57507 943.008 1.57507C944.373 1.57507 945.475 2.04742 946.315 2.99213C947.259 3.83186 947.732 4.93401 947.732 6.29858V119.82C947.732 121.185 947.259 122.339 946.315 123.284C945.475 124.124 944.373 124.544 943.008 124.544Z" fill="white"/>
<path d="M819.289 124.544C817.505 124.544 816.036 124.176 814.881 123.442C813.726 122.602 813.149 121.395 813.149 119.82V6.29858C813.149 4.82904 813.569 3.6744 814.409 2.83467C815.353 1.99494 816.508 1.57507 817.872 1.57507H856.448C862.326 1.57507 867.679 2.88716 872.508 5.51132C877.336 8.03053 881.22 11.5469 884.159 16.0605C887.098 20.4691 888.568 25.56 888.568 31.3332C888.568 37.4212 886.941 42.7745 883.687 47.3931C880.538 51.9067 876.391 55.3181 871.248 57.6274C878.386 59.6217 884.107 63.2956 888.41 68.6489C892.819 74.0022 895.023 80.72 895.023 88.8025C895.023 95.7303 893.449 101.923 890.3 107.382C887.256 112.735 883.004 116.934 877.546 119.978C872.088 123.022 865.842 124.544 858.81 124.544H819.289ZM822.596 115.097H858.81C864.058 115.097 868.676 113.995 872.665 111.79C876.654 109.481 879.803 106.384 882.112 102.501C884.421 98.5119 885.576 93.9459 885.576 88.8025C885.576 83.7641 884.421 79.303 882.112 75.4192C879.803 71.5355 876.654 68.4914 872.665 66.2871C868.676 64.0828 864.058 62.9807 858.81 62.9807H822.596V115.097ZM822.596 53.5336H856.448C863.061 53.5336 868.466 51.5393 872.665 47.5505C876.969 43.4568 879.121 38.051 879.121 31.3332C879.121 24.8252 876.969 19.8393 872.665 16.3754C868.466 12.8065 863.061 11.0221 856.448 11.0221H822.596V53.5336Z" fill="white"/>
<path d="M675.514 124.544C673.519 124.544 672.102 123.756 671.263 122.182C670.528 120.607 670.528 119.138 671.263 117.773L718.97 4.88152C719.81 2.67722 721.332 1.57507 723.536 1.57507C725.635 1.57507 727.157 2.67722 728.102 4.88152L775.967 117.773C776.807 119.243 776.754 120.765 775.809 122.339C774.865 123.809 773.5 124.544 771.716 124.544C770.666 124.544 769.774 124.334 769.039 123.914C768.409 123.389 767.832 122.602 767.307 121.552L721.017 11.1795H726.055L679.922 121.552C679.502 122.602 678.925 123.389 678.19 123.914C677.456 124.334 676.563 124.544 675.514 124.544ZM687.165 93.6834L690.944 85.1811H756.443L760.064 93.6834H687.165Z" fill="white"/>
<path d="M604.844 124.544C602.849 124.544 601.432 123.547 600.593 121.552L553.357 9.29013C552.308 6.87589 552.255 4.98649 553.2 3.62193C554.25 2.25736 555.667 1.57507 557.451 1.57507C559.446 1.57507 560.968 2.67722 562.017 4.88152L607.363 113.365H602.797L647.513 5.51132C648.038 4.04179 648.72 3.04461 649.56 2.51977C650.399 1.88997 651.449 1.57507 652.709 1.57507C654.598 1.57507 655.858 2.36232 656.487 3.93682C657.117 5.51132 657.012 7.29576 656.173 9.29013L609.095 121.552C608.57 122.707 607.888 123.494 607.048 123.914C606.313 124.334 605.579 124.544 604.844 124.544Z" fill="white"/>
<path d="M459.653 126.118C450.626 126.118 442.281 124.543 434.619 121.394C426.956 118.245 420.238 113.837 414.465 108.168C408.797 102.395 404.388 95.6773 401.239 88.0147C398.09 80.3521 396.516 72.0073 396.516 62.9801C396.516 53.953 398.09 45.6606 401.239 38.103C404.388 30.4404 408.797 23.775 414.465 18.1068C420.238 12.3336 426.956 7.87251 434.619 4.7235C442.281 1.5745 450.626 0 459.653 0C468.681 0 476.973 1.5745 484.531 4.7235C492.193 7.87251 498.859 12.3336 504.527 18.1068C510.3 23.775 514.761 30.4404 517.91 38.103C521.059 45.6606 522.634 53.953 522.634 62.9801C522.634 72.0073 521.059 80.3521 517.91 88.0147C514.761 95.6773 510.3 102.395 504.527 108.168C498.859 113.837 492.193 118.245 484.531 121.394C476.973 124.543 468.681 126.118 459.653 126.118ZM459.653 116.671C467.211 116.671 474.244 115.359 480.752 112.734C487.26 110.005 492.928 106.226 497.756 101.398C502.69 96.4645 506.469 90.7438 509.093 84.2359C511.822 77.7279 513.187 70.6427 513.187 62.9801C513.187 55.4225 511.822 48.3897 509.093 41.8818C506.469 35.3738 502.69 29.7056 497.756 24.8771C492.928 19.9437 487.26 16.1649 480.752 13.5407C474.244 10.8116 467.211 9.44702 459.653 9.44702C451.991 9.44702 444.906 10.8116 438.398 13.5407C431.89 16.1649 426.169 19.9437 421.236 24.8771C416.407 29.7056 412.628 35.3738 409.899 41.8818C407.275 48.3897 405.963 55.4225 405.963 62.9801C405.963 70.6427 407.275 77.7279 409.899 84.2359C412.628 90.7438 416.407 96.4645 421.236 101.398C426.169 106.226 431.89 110.005 438.398 112.734C444.906 115.359 451.991 116.671 459.653 116.671Z" fill="white"/>
<path d="M259.333 124.544C257.968 124.544 256.813 124.124 255.869 123.284C255.029 122.339 254.609 121.185 254.609 119.82V6.29858C254.609 4.93401 255.029 3.83186 255.869 2.99213C256.813 2.04742 257.968 1.57507 259.333 1.57507C260.802 1.57507 262.009 2.09991 262.954 3.14957L342.939 107.224V6.29858C342.939 4.93401 343.359 3.83186 344.198 2.99213C345.143 2.04742 346.298 1.57507 347.662 1.57507C348.922 1.57507 350.024 2.04742 350.969 2.99213C351.913 3.83186 352.386 4.93401 352.386 6.29858V119.82C352.386 121.185 351.913 122.339 350.969 123.284C350.024 124.124 348.922 124.544 347.662 124.544C346.927 124.544 346.245 124.439 345.615 124.229C345.091 123.914 344.618 123.547 344.198 123.127L264.056 18.8946V119.82C264.056 121.185 263.584 122.339 262.639 123.284C261.799 124.124 260.697 124.544 259.333 124.544Z" fill="white"/>
<path d="M199.54 124.544C198.176 124.544 197.021 124.124 196.076 123.284C195.237 122.339 194.817 121.185 194.817 119.82V6.29858C194.817 4.93401 195.237 3.83186 196.076 2.99213C197.021 2.04742 198.176 1.57507 199.54 1.57507C200.905 1.57507 202.007 2.04742 202.847 2.99213C203.792 3.83186 204.264 4.93401 204.264 6.29858V119.82C204.264 121.185 203.792 122.339 202.847 123.284C202.007 124.124 200.905 124.544 199.54 124.544Z" fill="white"/>
</g>
<defs>
<linearGradient id="paint0_linear_279_13711" x1="133.334" y1="2.75078" x2="93.1967" y2="49.5568" gradientUnits="userSpaceOnUse">
<stop stop-color="#04E5F3"/>
<stop offset="1" stop-color="#08ACF4"/>
</linearGradient>
<linearGradient id="paint1_linear_279_13711" x1="20.1174" y1="21.455" x2="123.233" y2="131.388" gradientUnits="userSpaceOnUse">
<stop stop-color="#25CF6C"/>
<stop offset="1" stop-color="#94CE94"/>
</linearGradient>
</defs>
</svg>
